<svg width="24" height="24" viewBox="0 0 24 24" fill="none" xmlns="http://www.w3.org/2000/svg">
<path fill-rule="evenodd" clip-rule="evenodd" d="M11.504 18.7949C11.6377 18.9286 11.8169 19 11.9989 19C12.0892 19 12.1802 18.9825 12.267 18.9468C12.5288 18.8383 12.6989 18.5828 12.6989 18.3V5.70027C12.6989 5.41748 12.5288 5.16198 12.267 5.05349C12.0052 4.94499 11.7042 5.00449 11.504 5.20538L8.20916 8.50021H6.39899C5.62691 8.50021 4.99902 9.1281 4.99902 9.90019V14.1001C4.99902 14.8722 5.62691 15.5001 6.39899 15.5001H8.20916L11.504 18.7949ZM6.39899 14.1001V9.90019H8.49895C8.68515 9.90019 8.86294 9.82669 8.99384 9.69509L11.2989 7.39004V16.6102L8.99384 14.3052C8.86294 14.1736 8.68515 14.1001 8.49895 14.1001H6.39899ZM15.4783 10.1065L16.3834 11.0113L17.2884 10.1065C17.5618 9.83313 18.005 9.83313 18.2783 10.1065C18.5373 10.3655 18.5628 10.8044 18.2783 11.0964L17.3735 12.0014L18.2783 12.9065C18.5517 13.1799 18.5517 13.6231 18.2783 13.8964C18.0194 14.1554 17.5911 14.1913 17.2884 13.8925L16.3834 12.9916L15.4783 13.8964C15.205 14.1698 14.7618 14.1698 14.4884 13.8964C14.2294 13.6375 14.2013 13.2059 14.4884 12.9065L15.3932 12.0014L14.4884 11.0964C14.215 10.8231 14.215 10.3799 14.4884 10.1065C14.7474 9.84752 15.1809 9.80998 15.4783 10.1065Z" fill="white"/>
</svg>
