<svg width="24" height="24" viewBox="0 0 24 24" fill="none" xmlns="http://www.w3.org/2000/svg">
<path fill-rule="evenodd" clip-rule="evenodd" d="M11.505 18.7949C11.6387 18.9286 11.8179 19 11.9999 19C12.0902 19 12.1812 18.9825 12.268 18.9468C12.5297 18.8383 12.6998 18.5828 12.6998 18.3V5.70027C12.6998 5.41748 12.5297 5.16198 12.268 5.05349C12.0062 4.94499 11.7052 5.00449 11.505 5.20538L8.21013 8.50021H6.39997C5.62789 8.50021 5 9.1281 5 9.90019V14.1001C5 14.8722 5.62789 15.5001 6.39997 15.5001H8.21013L11.505 18.7949ZM6.39997 14.1001V9.90019H8.49993C8.68612 9.90019 8.86392 9.82669 8.99482 9.69509L11.2999 7.39004V16.6102L8.99482 14.3052C8.86392 14.1736 8.68612 14.1001 8.49993 14.1001H6.39997ZM16.4508 17.1531C16.2709 17.1531 16.091 17.0838 15.9545 16.9466C15.6815 16.6722 15.6829 16.2291 15.9573 15.9561C17.0157 14.9047 17.5988 13.5006 17.5988 12.0012C17.5988 10.5018 17.0157 9.09765 15.9573 8.04627C15.6829 7.77328 15.6815 7.33089 15.9545 7.05579C16.2268 6.7814 16.6692 6.78 16.9443 7.05299C18.2694 8.36967 18.9988 10.1266 18.9988 12.0012C18.9988 13.8758 18.2694 15.6327 16.9443 16.9494C16.8078 17.0852 16.6293 17.1531 16.4508 17.1531ZM14.4707 15.1708C14.2901 15.1708 14.1095 15.1015 13.973 14.9629C13.7007 14.6878 13.7035 14.2447 13.9786 13.9731C14.5001 13.4572 14.7997 12.7376 14.7997 11.9999C14.7997 11.2621 14.5001 10.5425 13.9786 10.0266C13.7035 9.75501 13.7014 9.31192 13.973 9.03682C14.2446 8.76243 14.6877 8.75963 14.9628 9.03122C15.7489 9.80821 16.1996 10.8904 16.1996 11.9999C16.1996 13.1093 15.7489 14.1915 14.9628 14.9685C14.8263 15.1036 14.6485 15.1708 14.4707 15.1708Z" fill="white"/>
</svg>
